<?xml version="1.0" encoding="utf-8"?>
<!-- Generator: Adobe Illustrator 28.2.0, SVG Export Plug-In . SVG Version: 6.00 Build 0)  -->
<svg version="1.1"
	 id="Layer_1" xmlns:cc="http://creativecommons.org/ns#" xmlns:dc="http://purl.org/dc/elements/1.1/" xmlns:svg="http://www.w3.org/2000/svg" xmlns:rdf="http://www.w3.org/1999/02/22-rdf-syntax-ns#" xmlns:inkscape="http://www.inkscape.org/namespaces/inkscape" xmlns:sodipodi="http://sodipodi.sourceforge.net/DTD/sodipodi-0.dtd"
	 xmlns="http://www.w3.org/2000/svg" xmlns:xlink="http://www.w3.org/1999/xlink" x="0px" y="0px" viewBox="0 0 110.4 93.7"
	 style="enable-background:new 0 0 110.4 93.7;" xml:space="preserve">
<style type="text/css">
	.st0{fill:#FFFFFF;}
</style>
<g transform="translate(0,-952.36218)">
	<path class="st0" d="M11.4,967.6c-1,0.1-1.8,1-1.8,2v60c0,1.1,0.9,2,2,2h88c1.1,0,2-0.9,2-2v-60c0-1.1-0.9-2-2-2h-88
		C11.5,967.6,11.4,967.6,11.4,967.6z M17,971.6h77.2L55.6,1003L17,971.6z M13.6,974l40.8,33.2c0.7,0.6,1.8,0.6,2.5,0L97.6,974v53.6
		h-84V974z"/>
</g>
</svg>
